/* XPM */
static char * ldm_50x50_xpm[] = {
"50 49 494 2",
"  	c #F3F3F3",
". 	c #C5C5C5",
"+ 	c #C7C7C7",
"@ 	c #000000",
"# 	c #C8C8C8",
"$ 	c #3C00FF",
"% 	c #030013",
"& 	c #3A00FF",
"* 	c #3600FF",
"= 	c #2100A5",
"- 	c #3300FF",
"; 	c #3800FF",
"> 	c #140068",
", 	c #3900FF",
"' 	c #12005A",
") 	c #3700FF",
"! 	c #0C003F",
"~ 	c #2C00DD",
"{ 	c #2B00D7",
"] 	c #0A0032",
"^ 	c #02000C",
"/ 	c #1E0096",
"( 	c #3400FF",
"_ 	c #170077",
": 	c #000002",
"< 	c #0F004C",
"[ 	c #2E00E9",
"} 	c #2A00D6",
"| 	c #3B00FF",
"1 	c #3500FF",
"2 	c #2000A1",
"3 	c #3100F9",
"4 	c #140066",
"5 	c #110058",
"6 	c #0C003D",
"7 	c #02000D",
"8 	c #0F004D",
"9 	c #090031",
"0 	c #1D0093",
"a 	c #170075",
"b 	c #0E004A",
"c 	c #2D00E5",
"d 	c #2A00D2",
"e 	c #100051",
"f 	c #010005",
"g 	c #0F004E",
"h 	c #0E0049",
"i 	c #08002C",
"j 	c #0D0044",
"k 	c #0F004B",
"l 	c #05001C",
"m 	c #040018",
"n 	c #040017",
"o 	c #520000",
"p 	c #4F0000",
"q 	c #510000",
"r 	c #12005C",
"s 	c #000003",
"t 	c #080028",
"u 	c #0E0046",
"v 	c #060020",
"w 	c #040014",
"x 	c #0C003E",
"y 	c #0B0039",
"z 	c #030012",
"A 	c #1E009A",
"B 	c #2F00EE",
"C 	c #130061",
"D 	c #100054",
"E 	c #10004D",
"F 	c #140000",
"G 	c #D70000",
"H 	c #DE0000",
"I 	c #DD0000",
"J 	c #140062",
"K 	c #1C008C",
"L 	c #3100F6",
"M 	c #16006F",
"N 	c #0E0047",
"O 	c #2B00DA",
"P 	c #2800C8",
"Q 	c #2000A2",
"R 	c #3200FA",
"S 	c #140067",
"T 	c #000026",
"U 	c #F90000",
"V 	c #DC0000",
"W 	c #000031",
"X 	c #000001",
"Y 	c #2A00D3",
"Z 	c #970000",
"` 	c #2000A3",
" .	c #3200FC",
"..	c #110059",
"+.	c #160077",
"@.	c #980000",
"#.	c #990000",
"$.	c #1D0094",
"%.	c #170076",
"&.	c #2E00E7",
"*.	c #2A00D4",
"=.	c #2F00ED",
"-.	c #1B008B",
";.	c #3100F5",
">.	c #2B00D9",
",.	c #130060",
"'.	c #010006",
").	c #12005D",
"!.	c #110056",
"~.	c #0A0034",
"{.	c #060021",
"].	c #12005B",
"^.	c #110057",
"/.	c #10005B",
"(.	c #A40000",
"_.	c #09002F",
":.	c #100053",
"<.	c #070026",
"[.	c #2000A0",
"}.	c #3100F7",
"|.	c #140065",
"1.	c #3000F1",
"2.	c #EB0000",
"3.	c #8D0000",
"4.	c #1D0091",
"5.	c #170074",
"6.	c #2D00E2",
"7.	c #2900D0",
"8.	c #1E0099",
"9.	c #000016",
"0.	c #640000",
"a.	c #F30000",
"b.	c #DB0000",
"c.	c #E10000",
"d.	c #E40000",
"e.	c #530000",
"f.	c #3200FE",
"g.	c #2700C7",
"h.	c #1F009B",
"i.	c #3000F0",
"j.	c #130062",
"k.	c #0E0048",
"l.	c #000D00",
"m.	c #001600",
"n.	c #000600",
"o.	c #050023",
"p.	c #000008",
"q.	c #D00000",
"r.	c #C20000",
"s.	c #860000",
"t.	c #A30000",
"u.	c #EC0000",
"v.	c #2F0000",
"w.	c #090043",
"x.	c #1C008D",
"y.	c #3100F8",
"z.	c #160070",
"A.	c #2C00DC",
"B.	c #2800CA",
"C.	c #0A0035",
"D.	c #090030",
"E.	c #05001D",
"F.	c #09002D",
"G.	c #0A0033",
"H.	c #09002E",
"I.	c #009C00",
"J.	c #00AC00",
"K.	c #00C400",
"L.	c #003F00",
"M.	c #AC0000",
"N.	c #760001",
"O.	c #E90000",
"P.	c #5C0000",
"Q.	c #0A003E",
"R.	c #040015",
"S.	c #080029",
"T.	c #2000A4",
"U.	c #3200FD",
"V.	c #002000",
"W.	c #00C500",
"X.	c #00A700",
"Y.	c #2800E1",
"Z.	c #2C00F3",
"`.	c #00000C",
" +	c #A00000",
".+	c #F10000",
"++	c #350000",
"@+	c #2E00E8",
"#+	c #2A00D5",
"$+	c #08002A",
"%+	c #005100",
"&+	c #00C200",
"*+	c #005200",
"=+	c #00BD00",
"-+	c #2600D3",
";+	c #2900E4",
">+	c #3200FB",
",+	c #000013",
"'+	c #730000",
")+	c #E50000",
"!+	c #5F0000",
"~+	c #090032",
"{+	c #2900CD",
"]+	c #2500B9",
"^+	c #2200AD",
"/+	c #2600BE",
"(+	c #2700C5",
"_+	c #003400",
":+	c #00CF00",
"<+	c #008100",
"[+	c #1A0099",
"}+	c #1D00A6",
"|+	c #060022",
"1+	c #2500BC",
"2+	c #2600C0",
"3+	c #F40000",
"4+	c #370000",
"5+	c #890000",
"6+	c #2600C1",
"7+	c #100050",
"8+	c #2700C6",
"9+	c #2700C3",
"0+	c #2500BA",
"a+	c #1F009E",
"b+	c #2F00EF",
"c+	c #03000F",
"d+	c #2B00D8",
"e+	c #1A0082",
"f+	c #2800C9",
"g+	c #2C00DE",
"h+	c #00BE00",
"i+	c #006101",
"j+	c #2E00E6",
"k+	c #1F00B3",
"l+	c #2200C1",
"m+	c #070027",
"n+	c #2B00DB",
"o+	c #2D00E1",
"p+	c #010009",
"q+	c #00000F",
"r+	c #630000",
"s+	c #E00000",
"t+	c #DA0000",
"u+	c #010000",
"v+	c #15006C",
"w+	c #2E00EA",
"x+	c #0C003C",
"y+	c #2D00E3",
"z+	c #2100A9",
"A+	c #003900",
"B+	c #2300AF",
"C+	c #003C00",
"D+	c #00D100",
"E+	c #007900",
"F+	c #0B003A",
"G+	c #02000B",
"H+	c #2200AC",
"I+	c #A80000",
"J+	c #E20000",
"K+	c #F20000",
"L+	c #020000",
"M+	c #1B008A",
"N+	c #2200AE",
"O+	c #1A00BB",
"P+	c #090060",
"Q+	c #1900B0",
"R+	c #00A000",
"S+	c #00AA00",
"T+	c #00BC00",
"U+	c #00AD00",
"V+	c #004500",
"W+	c #006200",
"X+	c #2800DD",
"Y+	c #2B00EE",
"Z+	c #1A0093",
"`+	c #110000",
" @	c #130000",
".@	c #00000B",
"+@	c #F7F800",
"@@	c #EAEA00",
"#@	c #E9EA00",
"$@	c #DADA00",
"%@	c #2D00E4",
"&@	c #2900D1",
"*@	c #0D0041",
"=@	c #003A00",
"-@	c #00D200",
";@	c #00BB00",
">@	c #00BA00",
",@	c #00C700",
"'@	c #006700",
")@	c #0A0036",
"!@	c #120060",
"~@	c #11005D",
"{@	c #110055",
"]@	c #090042",
"^@	c #AD0000",
"/@	c #0A0047",
"(@	c #02000E",
"_@	c #08002B",
":@	c #12005E",
"<@	c #16006E",
"[@	c #BFBF00",
"}@	c #FFFF00",
"|@	c #FDFD00",
"1@	c #4F4F00",
"2@	c #08003B",
"3@	c #0D0043",
"4@	c #010007",
"5@	c #00A800",
"6@	c #00B100",
"7@	c #0C000A",
"8@	c #0D0000",
"9@	c #FEFE00",
"0@	c #E6E600",
"a@	c #070023",
"b@	c #003D00",
"c@	c #00B900",
"d@	c #1F009D",
"e@	c #190080",
"f@	c #363400",
"g@	c #525500",
"h@	c #0E0091",
"i@	c #00001F",
"j@	c #0C0089",
"k@	c #060071",
"l@	c #08007A",
"m@	c #000019",
"n@	c #0C008B",
"o@	c #0D008E",
"p@	c #000006",
"q@	c #0E0093",
"r@	c #00004B",
"s@	c #0B0084",
"t@	c #4F5300",
"u@	c #003800",
"v@	c #080800",
"w@	c #CED300",
"x@	c #A70000",
"y@	c #4D4D00",
"z@	c #190083",
"A@	c #323400",
"B@	c #ACAB01",
"C@	c #727500",
"D@	c #747500",
"E@	c #5A6100",
"F@	c #AA0000",
"G@	c #757500",
"H@	c #737500",
"I@	c #6C6D00",
"J@	c #4B4D00",
"K@	c #18007B",
"L@	c #003600",
"M@	c #150068",
"N@	c #000009",
"O@	c #2700D9",
"P@	c #2A00EA",
"Q@	c #1C008F",
"R@	c #0E0090",
"S@	c #FCFC00",
"T@	c #464A00",
"U@	c #00B400",
"V@	c #00C300",
"W@	c #0B0037",
"X@	c #0F004F",
"Y@	c #050019",
"Z@	c #060037",
"`@	c #F6F600",
" #	c #00B800",
".#	c #00B200",
"+#	c #00C100",
"@#	c #3000F3",
"##	c #F3F300",
"$#	c #FBFB00",
"%#	c #2700C1",
"&#	c #2400B8",
"*#	c #160072",
"=#	c #003B00",
"-#	c #000C00",
";#	c #00CA00",
">#	c #2200A6",
",#	c #E4E400",
"'#	c #0F1100",
")#	c #4C5000",
"!#	c #4B4F00",
"~#	c #4D4F00",
"{#	c #464900",
"]#	c #1B0089",
"^#	c #00C000",
"/#	c #1F00B6",
"(#	c #AB0000",
"_#	c #2200C5",
":#	c #02000A",
"<#	c #2E00E5",
"[#	c #180074",
"}#	c #000B00",
"|#	c #00CC00",
"1#	c #05001B",
"2#	c #1A0000",
"3#	c #D50000",
"4#	c #19007E",
"5#	c #1D0090",
"6#	c #EBEB00",
"7#	c #0B0F00",
"8#	c #00B600",
"9#	c #002300",
"0#	c #180000",
"a#	c #D80000",
"b#	c #1C0000",
"c#	c #0D0042",
"d#	c #2200B5",
"e#	c #303000",
"f#	c #F8F800",
"g#	c #20019B",
"h#	c #00CD00",
"i#	c #00A300",
"j#	c #00AE00",
"k#	c #1F00B9",
"l#	c #B70000",
"m#	c #2300CB",
"n#	c #00000E",
"o#	c #DFDF00",
"p#	c #060800",
"q#	c #003500",
"r#	c #000900",
"s#	c #000010",
"t#	c #010008",
"u#	c #535300",
"v#	c #484800",
"w#	c #001800",
"x#	c #008700",
"y#	c #020008",
"z#	c #070021",
"A#	c #4D5100",
"B#	c #B9B900",
"C#	c #1E2000",
"D#	c #06001F",
"E#	c #000100",
"F#	c #004744",
"G#	c #005E77",
"H#	c #00DEFF",
"I#	c #005E76",
"J#	c #004754",
"K#	c #010023",
"L#	c #000005",
"M#	c #06005F",
"N#	c #00CCFF",
"O#	c #00CDFF",
"P#	c #00CBFE",
"Q#	c #000004",
"R#	c #090011",
"S#	c #00D8FF",
"T#	c #00D3FF",
"U#	c #00313D",
"V#	c #1D0095",
"W#	c #008AA2",
"X#	c #008EB1",
"Y#	c #19007F",
"Z#	c #170073",
"`#	c #0D0045",
" $	c #15006B",
".$	c #18007A",
"+$	c #180079",
"@$	c #070025",
"#$	c #19007D",
"$$	c #008DB2",
"%$	c #008DB1",
"&$	c #008CA5",
"*$	c #070009",
"=$	c #00D9FF",
"-$	c #00D2FF",
";$	c #00353C",
">$	c #030011",
",$	c #2C00E0",
"'$	c #0E0037",
")$	c #00CEFF",
"!$	c #110043",
"~$	c #1A0084",
"{$	c #150069",
"]$	c #3000F2",
"^$	c #2900CE",
"/$	c #2500BD",
"($	c #2100A7",
"_$	c #1E0097",
":$	c #1F009F",
"<$	c #1E0098",
"[$	c #00414D",
"}$	c #00E4FF",
"|$	c #00DAFF",
"1$	c #2300B3",
"2$	c #100052",
"3$	c #190081",
"4$	c #040006",
"5$	c #05000D",
"  . + + + + + + + + + + + + + + + + + + + + + + + + + + + + + + + + + + + + + + + + + + + + + + .   ",
"+ @ @ @ @ @ @ @ @ @ @ @ @ @ @ @ @ @ @ @ @ @ @ @ @ @ @ @ @ @ @ @ @ @ @ @ @ @ @ @ @ @ @ @ @ @ @ @ @ + ",
"# @ $ % & * = - * ; > * & @ , * ' ; * ) ! & * ~ { ; & ] ) ; ^ & * / ( * ) _ * & : , ) < , * [ } @ # ",
"# @ | % , 1 2 3 1 ) 4 1 , @ ; 1 5 ) 1 * 6 ; 1 ~ 7 8 & 9 * ) ^ , 1 0 - 1 * a 1 , : ; 1 b ; 1 c d @ # ",
"# @ e f g h i j h k l h g @ 8 h m < h b n @ @ o p p q @ @ r s g h t u h b v h g @ 8 h w 8 h x y @ # ",
"# @ ; z * - A B - ( C - * @ * - D 1 - - E F G H I I H G F J 7 * - K L - - M - * : 1 - N 1 - O P @ # ",
"# @ | % , 1 Q R 1 ) S 1 , @ ; 1 5 ; 1 - T U V I I I I V U W X , 1 0 - 1 * a 1 , : ; * k ; 1 c Y @ # ",
"# @ @ @ @ @ @ @ @ @ @ @ @ @ @ @ @ @ @ @ Z I I I I I I I I Z @ @ @ @ @ @ @ @ @ @ @ @ @ @ @ @ @ @ @ # ",
"# @ | % & * `  .* ) S * , @ , * ..; ; +.@.I I I I I I I I #.@ & * $.( * * %.* , : ; * k ; * &.*.@ # ",
"# @ ; z * - A =.- ( C - * @ 1 - D 1 * @ #.I I I I I I I I #.@ * - -.;.- - M - * : 1 - N 1 - >.P @ # ",
"# @ ,.'.).!.~.e !...{.!.r @ ].^.l ' !./.(.V I I I I I I I #.@ ).!._.:.!.^.<.!.r @ ].^.m ].!.b j @ # ",
"# @ & % , 1 [.}.1 * |.1 ; @ ; 1 ^.) 1 1.@ 2.V I I I I I I 3.@ ; 1 4.- 1 1 5.1 ; : ) 1 h ) 1 6.7.@ # ",
"# @ ; z * - 8.=.- ( C - * @ 1 - D 1 * - 9.0.a.b.I I I c.d.e.@ , f.-.;.- - M - * : 1 - N 1 - >.g.@ # ",
"# @ ; z ) - h.i.- ( j.- * @ * - k.O l.m.n.o.p.q.G G r.s.t.u.v.w.- x.y.- ( z.- ) : * - N * - A.B.@ # ",
"# @ C.s ~.D.E.F.D.] z D.G.@ G.H.@ I.J.K.L.6 @ @ M.M.@ @ @ N.O.P.Q.<.H.D.9 R.D.~.@ G.D.7 G.D.S.<.@ # ",
"# @ $ % & * T.U.* ) > * , @ , ) 5 V.W.X.@ , * Y.M.M.Z.] , `. +.+++@ 1 ~ * _ * & : , * k , * @+#+@ # ",
"# @ ; z * - 8.=.- ( C - * @ & $+%+&+*+=+@ * - -+M.M.;+_.- >+,+'+)+!+~+@ f.M - * : 1 - N 1 - >.g.@ # ",
"# @ {+7 g.]+z.^+]+/+N ]+(+@ !._+:+<+@ @ @ (+]+[+M.M.}+|+1+2+z @ #.3+4+5+6+7+]+8+X 9+0+G.9+]+a+4.@ # ",
"# @ b+c+@+d+e+f+g+B e d+b+@ %+h+i+@ j+g+] c d+k+M.M.l+m+n+o+p+ .q+r+s+t+u+v+d+&.: w+>.x+y+d+]+z+@ # ",
"# @ ; z * ( ` Q C A+7+B+8 C+D+E+@ ; f.- F+* - -+M.M.;+_.- ( G+H+@ I+J+K+L+M+N+O+@ P+Q+$+) f.>.g.@ # ",
"# @ | % | i 7 R+S+T+S+U+V+T+W+p+r ) 1 1 6 ; 1 X+M.M.Y+9 * ) G+) L Z+`+ @@ .@@ +@@@#@$@@ F.) %@&@@ # ",
"# @ 5 f *@=@-@;@;@;@;@>@,@'@)@C m !@~@7+z {@7+]@^@^@/@(@e :.s !.7+_@:@<@X [@}@|@}@}@}@}@1@2@3@x @ # ",
"# @ ; {.4@5@>@;@;@;@;@;@;@6@K - > 7@8@1 F+* - -+M.M.;+_.- 1 G+* - K L 4.@ }@}@}@}@}@}@9@0@@ [ P @ # ",
"# @ | a@b@=+;@;@;@;@;@;@;@c@d@e@f@}@g@h@i@h@j@k@^@^@l@m@n@o@p@q@j@r@s@r@}@|@}@}@}@}@}@}@}@t@L Y @ # ",
"# @ @ @ u@T+;@;@;@;@;@;@;@c@@ v@}@}@}@}@}@}@}@w@x@x@w@}@}@}@}@}@}@}@}@}@}@}@}@}@}@}@}@}@}@y@@ @ @ # ",
"# @ | a@u@T+;@;@;@;@;@;@;@c@k z@A@}@B@C@D@C@C@E@F@F@E@G@C@C@G@C@C@H@C@I@|@}@}@}@}@}@}@}@}@J@K@{ @ # ",
"# @ ; {.L@;@;@;@;@;@;@;@>@c@K - M@N@@ ) x+) ( O@M.M.P@D.1 * G+; ( Q@ .R@S@9@}@}@}@}@}@}@}@T@[ P @ # ",
"# @ 5 G+@ U@>@;@;@;@;@;@V@u@W@X@Y@..@ {@z {@7+]@^@^@/@(@e :.s !.7+_@< Z@y@}@}@}@}@}@}@|@`@@ b x @ # ",
"# @ | % *.@  #;@T+T+T+T+.#+#@ U...) 1 1 6 ; 1 X+M.M.Y+9 * ) G+, 1 0 @#@ }@##}@}@}@}@}@$#@ %#%@&@@ # ",
"# @ ; z ; &#*#L@=@=@=@=#-#;#X.@ z 1 - - F+* - -+M.M.;+_.- ( G+* f.>#@ ,#}@'#)#!#1@~#{#@ %#( >.g.@ # ",
"# @ b+c+@+d+e+d+]#@ > @+*#@ >@^#@ c >.g+] c n+/#(#(#_#m+n+6.:#[ <#@ }@|@@ [#@+}.@ ]#[ *@y+d+]+z+@ # ",
"# @ {+7 g.]+z.^+1+8+u ]+f+@ }#|#J.@ 4.@ @ g.1#2#3#3#2#D.1+4#@ 5#@ 6#}@7#2+7+]+8+X 8+0+G.9+]+a+4.@ # ",
"# @ ; z * - 8.=.- ( C - * @ z+@ 8#h+@ 9#@ * , 0#a#a#b#c#- d#e#@ }@f#@ g#- M - * : 1 - N 1 - >.g.@ # ",
"# @ $ % & * T.U.* ) > * , @ & >.n.h#i#j#@ , ) k#l#l#m#C., n#6#o#}@p#>.) * _ * & : , * k , * @+#+@ # ",
"# @ C.s ~.D.E.F.D.] z D.G.@ G._.@ q#V@j#r#G.D._.@ s#*@t#~.u#}@}@v#@ _.D.9 R.D.~.@ G.D.7 G.D.S.<.@ # ",
"# @ ; z ) - h.i.- ( j.- * @ * y.@ w#x#,@C+, & y#@ u+z#3@& A#}@B#C#@ y.- ( z.- ) : * - N * - A.B.@ # ",
"# @ & % , 1 [.}.1 * |.1 ; @ ; 1 :@; 5 C D#E#F#G#H#H#I#J#E#K#L#M#* d@- 1 1 5.1 ; : ) 1 b ) 1 y+7.@ # ",
"# @ '.@ '.'.s f '.'.: '.'.@ '.'.: '.4@4@@ N#O#N#P#P#N#O#N#u+X t#'.s '.'.'.: '.'.@ '.'.X '.'.f Q#@ # ",
"# @ $ % & * T.f.* ; > * , @ , * ' ; * ( R#S#N#N#N#N#N#N#T#U#@ & * V#( * ) _ * & : , * < , * @+#+@ # ",
"# @ ; z * - 8.=.- ( C - * @ 1 - D 1 f.@+W#N#N#N#N#N#N#N#P#X#@ * - -.;.- - M - * : 1 - N 1 - >.g.@ # ",
"# @ Y#t#K@Z#`# $Z#%.i Z#.$@ +$Z#@$_ #$@ $$N#N#N#N#N#N#N#N#%$@ K@Z#! <@Z#5.] Z#.$@ +$Z#v +$Z#j.' @ # ",
"# @ ; z ) - h.b+- ( j.- * @ * - D 1 - j+&$N#N#N#N#N#N#N#P#%$@ ) - x.y.- - z.- * : * - N * - n+f+@ # ",
"# @ ; z * - 8.=.- ( C - * @ 1 - D 1 - ;.*$=$N#N#N#N#N#N#-$;$@ * - -.;.- - M - * : 1 - N 1 - >.g.@ # ",
"# @ 1 >$- 1.4.,$1.}.r 1.- @ - 1.X@>+1.@#'$)$O#P#N#N#P#O#)$!$7 - 1.~$@+1.@#{$1.- : U.]$3@U.1.^$/$@ # ",
"# @ ($:#Q _$].K _$h.y _$[.@ :$_$9 d@_$<$D.E#[$}$|$|$}$[$E#1$'.Q _$2$4._$<$c#_$2 X a+_$$+:$_$3$%.@ # ",
"# @ ; z * - 8.=.- ( C - * @ 1 - D 1 - - y , 5 4$@ @ 5$j * ( G+* - -.;.- - M - * : 1 - N 1 - >.g.@ # ",
"# @ $ % & * = - * ; > * & @ , * ' ; * ) ! & ; j+/ O $ 9 ) ; ^ & * / ( * ) _ * & : , ) < , * [ } @ # ",
"# @ @ @ @ @ @ @ @ @ @ @ @ @ @ @ @ @ @ @ @ @ @ @ @ @ @ @ @ @ @ @ @ @ @ @ @ @ @ @ @ @ @ @ @ @ @ @ @ # ",
"# @ @ @ @ @ @ @ @ @ @ @ @ @ @ @ @ @ @ @ @ @ @ @ @ @ @ @ @ @ @ @ @ @ @ @ @ @ @ @ @ @ @ @ @ @ @ @ @ + "};
